<?xml version="1.0" standalone="no"?><!DOCTYPE svg PUBLIC "-//W3C//DTD SVG 1.1//EN" "http://www.w3.org/Graphics/SVG/1.1/DTD/svg11.dtd"><svg t="1723733200269" class="icon" viewBox="0 0 1024 1024" version="1.1" xmlns="http://www.w3.org/2000/svg" p-id="25962" xmlns:xlink="http://www.w3.org/1999/xlink" width="200" height="200"><path d="M94.210507 111.684169l613.894765-110.84211c27.284212-5.11579 54.568424 13.642106 59.684213 40.926318v810.000036c0 28.989475-22.168422 51.157897-51.157897 51.157897h-8.526316l-613.894765-110.84211C68.631559 788.673674 51.578927 768.210515 51.578927 742.631566v-579.7895c0-25.578949 17.052632-46.042107 42.63158-51.157897z" fill="#96ADFA" p-id="25963"></path><path d="M965.600021 444.2105l-306.947383-57.97895c-32.400001-6.821053-63.09474 15.347369-69.915792 47.747371 0 3.410526-1.705263 6.821053-1.705264 10.231579v511.578971c0 32.400001 27.284212 59.684213 59.684214 59.684213 3.410526 0 6.821053 0 10.231579-1.705263l306.947382-57.97895c28.989475-5.11579 49.452634-30.694738 49.452634-57.97895V502.18945c1.705263-28.989475-18.757896-52.86316-47.74737-57.97895z" fill="#2A3C85" p-id="25964"></path><path d="M767.789485 415.221025V853.473676c0 28.989475-22.168422 51.157897-51.157897 51.157898h-8.526316L597.263162 884.168415V444.2105c0-3.410526 0-6.821053 1.705263-10.231579 5.11579-27.284212 32.400001-46.042107 59.684213-40.926318l109.136847 22.168422z" fill="#708BE3" p-id="25965"></path><path d="M290.315779 358.947338c10.231579 0 17.052632 6.821053 17.052633 17.052633v170.526323c0 10.231579-6.821053 17.052632-17.052633 17.052633s-17.052632-6.821053-17.052632-17.052633V375.999971c0-10.231579 6.821053-17.052632 17.052632-17.052633z" p-id="25966"></path><path d="M290.315779 358.947338c10.231579 0 17.052632 6.821053 17.052633 17.052633v170.526323c0 10.231579-6.821053 17.052632-17.052633 17.052633s-17.052632-6.821053-17.052632-17.052633V375.999971c0-10.231579 6.821053-17.052632 17.052632-17.052633z" fill="#FFFFFF" p-id="25967"></path><path d="M392.631574 307.789441c10.231579 0 17.052632 6.821053 17.052632 17.052633v272.842117c0 10.231579-6.821053 17.052632-17.052632 17.052633s-17.052632-6.821053-17.052633-17.052633V324.842074c0-10.231579 6.821053-17.052632 17.052633-17.052633z" p-id="25968"></path><path d="M392.631574 307.789441c10.231579 0 17.052632 6.821053 17.052632 17.052633v272.842117c0 10.231579-6.821053 17.052632-17.052632 17.052633s-17.052632-6.821053-17.052633-17.052633V324.842074c0-10.231579 6.821053-17.052632 17.052633-17.052633z" fill="#FFFFFF" p-id="25969"></path></svg>